<svg xmlns="http://www.w3.org/2000/svg" xmlns:xlink="http://www.w3.org/1999/xlink" style="overflow: visible;" data-svgdocument=""
     id="_EhxCjg0eFd-gWAOw8alkU" class="fl-svgdocument" x="0" y="0" overflow="hidden"
     data-bbox="87.13164034790033 287.3763492209547 348.2644662158947 65.24730155809056" viewBox="88.45 288.69 346.95 62.61">
    <defs id="_NVSUhYTtPwk97Q54rUMxx"
          transform="matrix(1.3043043613433838, 0, 0, 1.3043043613433838, -31.625648498535156, 131.65293884277344)"
          data-uid="o_enf4f14c7_4" />
    <path text="Students" text-anchor="start" font-size="100" letter-spacing="0" side="left" offset="0" dx="0" dy="0" space="preserve"
          href="" font-family="Baloo Bhai" font-scale="contain"
          transform="matrix(0.5975844264030457, 0, 0, 0.5975844264030457, 189.6096649169922, 339.2422180175781)" x="0" y="0" fill="#2F383D"
          data-fl-textpath="" id="_z5CNUfQuDwRMN9gngi9lT" font-weight="400" font-style="normal" data-uid="o_enf4f14c7_5"
          d="M 27.9-22.7L 23.7-24.1Q 19.3-25.6  15.7-27.15Q 12.1-28.7  9.5-30.9Q 6.9-33.1  5.45-36.15Q 4-39.2  4-43.6L 4-43.6Q 4-52.1  10.55-57.2Q 17.1-62.3  28.9-62.3L 28.9-62.3Q 33.2-62.3  36.9-61.7Q 40.6-61.1  43.25-59.85Q 45.9-58.6  47.4-56.65Q 48.9-54.7  48.9-52.1L 48.9-52.1Q 48.9-49.5  47.7-47.65Q 46.5-45.8  44.8-44.5L 44.8-44.5Q 42.6-45.9  38.9-46.95Q 35.2-48  30.8-48L 30.8-48Q 26.3-48  24.2-46.75Q 22.1-45.5  22.1-43.6L 22.1-43.6Q 22.1-42.1  23.4-41.15Q 24.7-40.2  27.3-39.4L 27.3-39.4L 32.6-37.7Q 42-34.7  47.05-30.05Q 52.1-25.4  52.1-17.4L 52.1-17.4Q 52.1-8.9  45.4-3.65Q 38.7 1.6  25.7 1.6L 25.7 1.6Q 21.1 1.6  17.15 0.85Q 13.2 0.1  10.25-1.35Q 7.3-2.8  5.65-4.95Q 4-7.1  4-9.9L 4-9.9Q 4-12.8  5.7-14.85Q 7.4-16.9  9.4-18L 9.4-18Q 12.2-15.8  16.25-14.2Q 20.3-12.6  25.1-12.6L 25.1-12.6Q 30-12.6  32-14.1Q 34-15.6  34-17.6L 34-17.6Q 34-19.6  32.4-20.65Q 30.8-21.7  27.9-22.7L 27.9-22.7ZM 77.3-31.8L 77.3-16.7Q 77.3-14.1  78.94999999999999-13Q 80.6-11.9  83.6-11.9L 83.6-11.9Q 85.1-11.9  86.69999999999999-12.15Q 88.3-12.4  89.5-12.8L 89.5-12.8Q 90.39999999999999-11.7  91.05-10.35Q 91.69999999999999-9  91.69999999999999-7.1L 91.69999999999999-7.1Q 91.69999999999999-3.3  88.85-0.9Q 86 1.5  78.8 1.5L 78.8 1.5Q 70 1.5  65.25-2.5Q 60.49999999999999-6.5  60.49999999999999-15.5L 60.49999999999999-15.5L 60.49999999999999-58.3Q 61.599999999999994-58.6  63.64999999999999-58.95Q 65.69999999999999-59.3  68-59.3L 68-59.3Q 72.39999999999999-59.3  74.85-57.75Q 77.3-56.2  77.3-51.2L 77.3-51.2L 77.3-44.8L 90.39999999999999-44.8Q 91-43.7  91.55-42.05Q 92.1-40.4  92.1-38.4L 92.1-38.4Q 92.1-34.9  90.55-33.35Q 89-31.8  86.39999999999999-31.8L 86.39999999999999-31.8L 77.3-31.8ZM 100.3-19.3L 100.3-47.9Q 101.3-48.2  103.44999999999999-48.5Q 105.6-48.8  107.89999999999999-48.8L 107.89999999999999-48.8Q 110.1-48.8  111.85-48.5Q 113.6-48.2  114.8-47.3Q 116-46.4  116.64999999999999-44.85Q 117.3-43.3  117.3-40.8L 117.3-40.8L 117.3-19.3Q 117.3-15.2  119.3-13.45Q 121.3-11.7  125.1-11.7L 125.1-11.7Q 127.39999999999999-11.7  128.85-12.1Q 130.3-12.5  131.1-12.9L 131.1-12.9L 131.1-47.9Q 132.1-48.2  134.25-48.5Q 136.39999999999998-48.8  138.7-48.8L 138.7-48.8Q 140.89999999999998-48.8  142.64999999999998-48.5Q 144.39999999999998-48.2  145.6-47.3Q 146.8-46.4  147.45-44.85Q 148.1-43.3  148.1-40.8L 148.1-40.8L 148.1-10.4Q 148.1-5.4  143.89999999999998-2.9L 143.89999999999998-2.9Q 140.39999999999998-0.7  135.55 0.45Q 130.7 1.6  125 1.6L 125 1.6Q 119.6 1.6  115.05 0.4Q 110.5-0.8  107.19999999999999-3.3Q 103.89999999999999-5.8  102.1-9.75Q 100.3-13.7  100.3-19.3L 100.3-19.3ZM 156.4-24.3L 156.4-24.3Q 156.4-30.9  158.4-35.75Q 160.4-40.6  163.95000000000002-43.8Q 167.5-47  172.25-48.55Q 177-50.1  182.5-50.1L 182.5-50.1Q 184.5-50.1  186.4-49.75Q 188.3-49.4  189.5-48.9L 189.5-48.9L 189.5-65.1Q 190.5-65.4  192.70000000000002-65.75Q 194.9-66.1  197.20000000000002-66.1L 197.20000000000002-66.1Q 199.4-66.1  201.15-65.8Q 202.9-65.5  204.10000000000002-64.6Q 205.3-63.7  205.9-62.15Q 206.5-60.6  206.5-58.1L 206.5-58.1L 206.5-10.7Q 206.5-6  202.10000000000002-3.2L 202.10000000000002-3.2Q 199.20000000000002-1.3  194.60000000000002 0.15Q 190 1.6  184 1.6L 184 1.6Q 177.5 1.6  172.35000000000002-0.2Q 167.20000000000002-2  163.65-5.4Q 160.10000000000002-8.8  158.25-13.55Q 156.4-18.3  156.4-24.3ZM 184.8-36.8L 184.8-36.8Q 179.4-36.8  176.5-33.7Q 173.60000000000002-30.6  173.60000000000002-24.3L 173.60000000000002-24.3Q 173.60000000000002-18.1  176.3-14.95Q 179-11.8  184.10000000000002-11.8L 184.10000000000002-11.8Q 185.9-11.8  187.35000000000002-12.35Q 188.8-12.9  189.60000000000002-13.6L 189.60000000000002-13.6L 189.60000000000002-35.6Q 187.60000000000002-36.8  184.8-36.8ZM 242.80000000000004 1.6L 242.80000000000004 1.6Q 236.90000000000003 1.6  231.85000000000002-0.05Q 226.80000000000004-1.7  223.05000000000004-5Q 219.30000000000004-8.3  217.15000000000003-13.3Q 215.00000000000003-18.3  215.00000000000003-25L 215.00000000000003-25Q 215.00000000000003-31.6  217.15000000000003-36.35Q 219.30000000000004-41.1  222.80000000000004-44.15Q 226.30000000000004-47.2  230.80000000000004-48.65Q 235.30000000000004-50.1  240.00000000000003-50.1L 240.00000000000003-50.1Q 245.30000000000004-50.1  249.65000000000003-48.5Q 254.00000000000003-46.9  257.15000000000003-44.1Q 260.3-41.3  262.05-37.4Q 263.8-33.5  263.8-28.9L 263.8-28.9Q 263.8-25.5  261.90000000000003-23.7Q 260.00000000000006-21.9  256.6-21.4L 256.6-21.4L 231.90000000000003-17.7Q 233.00000000000003-14.4  236.40000000000003-12.75Q 239.80000000000004-11.1  244.20000000000005-11.1L 244.20000000000005-11.1Q 248.30000000000004-11.1  251.95000000000005-12.15Q 255.60000000000002-13.2  257.90000000000003-14.6L 257.90000000000003-14.6Q 259.50000000000006-13.6  260.6-11.8Q 261.70000000000005-10  261.70000000000005-8L 261.70000000000005-8Q 261.70000000000005-3.5  257.50000000000006-1.3L 257.50000000000006-1.3Q 254.30000000000004 0.4  250.30000000000004 1Q 246.30000000000004 1.6  242.80000000000004 1.6ZM 240.00000000000003-37.7L 240.00000000000003-37.7Q 237.60000000000002-37.7  235.85000000000002-36.9Q 234.10000000000002-36.1  233.00000000000003-34.85Q 231.90000000000003-33.6  231.35000000000002-32.05Q 230.80000000000004-30.5  230.70000000000005-28.9L 230.70000000000005-28.9L 247.80000000000004-31.7Q 247.50000000000003-33.7  245.60000000000002-35.7Q 243.70000000000005-37.7  240.00000000000003-37.7ZM 302.8-7.2L 302.8-30.8Q 302.8-33.9  301.05-35.35Q 299.3-36.8  296.3-36.8L 296.3-36.8Q 294.3-36.8  292.35-36.3Q 290.40000000000003-35.8  289-34.8L 289-34.8L 289-0.1Q 288 0.2  285.85 0.5Q 283.7 0.8  281.40000000000003 0.8L 281.40000000000003 0.8Q 279.2 0.8  277.45 0.5Q 275.7 0.2  274.5-0.7Q 273.3-1.6  272.65000000000003-3.15Q 272-4.7  272-7.2L 272-7.2L 272-37.2Q 272-39.9  273.15000000000003-41.6Q 274.3-43.3  276.3-44.7L 276.3-44.7Q 279.7-47.1  284.85-48.6Q 290-50.1  296.3-50.1L 296.3-50.1Q 307.6-50.1  313.7-45.15Q 319.8-40.2  319.8-31.4L 319.8-31.4L 319.8-0.1Q 318.8 0.2  316.65000000000003 0.5Q 314.5 0.8  312.2 0.8L 312.2 0.8Q 310 0.8  308.25 0.5Q 306.5 0.2  305.3-0.7Q 304.1-1.6  303.45-3.15Q 302.8-4.7  302.8-7.2L 302.8-7.2ZM 347.3-31.8L 347.3-16.7Q 347.3-14.1  348.95000000000005-13Q 350.6-11.9  353.6-11.9L 353.6-11.9Q 355.1-11.9  356.70000000000005-12.15Q 358.3-12.4  359.5-12.8L 359.5-12.8Q 360.40000000000003-11.7  361.05-10.35Q 361.70000000000005-9  361.70000000000005-7.1L 361.70000000000005-7.1Q 361.70000000000005-3.3  358.85-0.9Q 356 1.5  348.8 1.5L 348.8 1.5Q 340 1.5  335.25-2.5Q 330.5-6.5  330.5-15.5L 330.5-15.5L 330.5-58.3Q 331.6-58.6  333.65000000000003-58.95Q 335.70000000000005-59.3  338-59.3L 338-59.3Q 342.40000000000003-59.3  344.85-57.75Q 347.3-56.2  347.3-51.2L 347.3-51.2L 347.3-44.8L 360.40000000000003-44.8Q 361-43.7  361.55-42.05Q 362.1-40.4  362.1-38.4L 362.1-38.4Q 362.1-34.9  360.55-33.35Q 359-31.8  356.40000000000003-31.8L 356.40000000000003-31.8L 347.3-31.8ZM 411.3-14.5L 411.3-14.5Q 411.3-6.9  405.6-2.6Q 399.90000000000003 1.7  388.8 1.7L 388.8 1.7Q 384.6 1.7  381 1.1Q 377.40000000000003 0.5  374.85-0.75Q 372.3-2  370.85-3.9Q 369.40000000000003-5.8  369.40000000000003-8.4L 369.40000000000003-8.4Q 369.40000000000003-10.8  370.40000000000003-12.45Q 371.40000000000003-14.1  372.8-15.2L 372.8-15.2Q 375.70000000000005-13.6  379.45000000000005-12.35Q 383.20000000000005-11.1  388.1-11.1L 388.1-11.1Q 391.20000000000005-11.1  392.85-12Q 394.5-12.9  394.5-14.4L 394.5-14.4Q 394.5-15.8  393.3-16.6Q 392.1-17.4  389.3-17.9L 389.3-17.9L 386.3-18.5Q 377.6-20.2  373.35-23.85Q 369.1-27.5  369.1-34.3L 369.1-34.3Q 369.1-38  370.70000000000005-41Q 372.3-44  375.20000000000005-46Q 378.1-48  382.15000000000003-49.1Q 386.20000000000005-50.2  391.1-50.2L 391.1-50.2Q 394.8-50.2  398.05-49.65Q 401.3-49.1  403.70000000000005-48Q 406.1-46.9  407.5-45.15Q 408.90000000000003-43.4  408.90000000000003-41L 408.90000000000003-41Q 408.90000000000003-38.7  408.05-37.05Q 407.20000000000005-35.4  405.90000000000003-34.3L 405.90000000000003-34.3Q 405.1-34.8  403.5-35.35Q 401.90000000000003-35.9  400-36.35Q 398.1-36.8  396.15000000000003-37.1Q 394.20000000000005-37.4  392.6-37.4L 392.6-37.4Q 389.3-37.4  387.5-36.65Q 385.70000000000005-35.9  385.70000000000005-34.3L 385.70000000000005-34.3Q 385.70000000000005-33.2  386.70000000000005-32.5Q 387.70000000000005-31.8  390.5-31.2L 390.5-31.2L 393.6-30.5Q 403.20000000000005-28.3  407.25-24.45Q 411.3-20.6  411.3-14.5Z" />
    <g transform="matrix(1.8770805597305298, 0, 0, 1.8770805597305298, 87.65116882324219, 143.19009399414062)" fill="#000000" stroke="none"
       stroke-width="2" data-uid="o_enf4f14c7_6">
        <path d="M79.297,49.314L52.402,31.516c-0.348-0.233-0.778-0.314-1.19-0.228l-29.788,6.291c-0.602,0.126-1.074,0.595-1.207,1.196  l-0.179,0.806c-0.142,0.634,0.123,1.291,0.666,1.649l12.472,8.254l-0.721,3.258c-0.363,1.648,0.86,3.642,3.725,5.537  c5.44,3.6,14.722,5.484,20.748,4.211c2.849-0.601,4.456-1.802,4.784-3.28l0.621-2.813l8.047-1.699  c1.001,1.415,1.653,3.131,1.818,5.32c-0.817,0.423-1.383,1.265-1.383,2.25c0,0.825,0.399,1.551,1.011,2.016  c-0.692,3.527-1.614,10.01,0.226,12.883c0.542,0.846,1.309,1.386,2.219,1.559c0.072,0.014,0.144,0.021,0.215,0.021  c0.535,0,1.012-0.379,1.116-0.925c0.117-0.617-0.288-1.213-0.904-1.331c-0.2-0.037-0.462-0.134-0.729-0.55  c-0.649-1.014-0.801-3.015-0.681-5.273c0.561,1.752,1.424,3.328,2.753,4.203c0.528,0.349,1.232,0.2,1.576-0.325  c0.345-0.524,0.199-1.229-0.325-1.575c-1.788-1.178-2.543-5.216-2.704-8.49c0.779-0.435,1.312-1.257,1.312-2.211  c0-1.001-0.583-1.857-1.423-2.271c-0.15-2.332-0.756-4.231-1.692-5.808l5.792-1.224c0.602-0.126,1.074-0.595,1.207-1.196  l0.179-0.806C80.104,50.33,79.839,49.673,79.297,49.314z M48.465,43.157c0.024-0.206,0.233-0.374,0.622-0.456  c0.773-0.163,1.971,0.08,2.67,0.544c0.351,0.23,0.51,0.475,0.484,0.681l0,0l-0.114,0.563h-0.001  c-0.025,0.205-0.234,0.372-0.621,0.454c-0.775,0.164-1.97-0.079-2.67-0.542c-0.351-0.232-0.51-0.476-0.485-0.681L48.465,43.157z"
              transform="matrix(0.7023288011550903, 0, 0, 0.7023288011550903, -13.621110916137695, 55.56547164916992)" fill="#2F383D"
              stroke="none" stroke-width="2" data-uid="o_enf4f14c7_7" />
    </g>
</svg>
