<svg xmlns="http://www.w3.org/2000/svg" style="overflow: visible;" data-svgdocument="" id="_EhxCjg0eFd-gWAOw8alkU" class="fl-svgdocument"
     x="0" y="0" overflow="hidden" data-bbox="87.13164034790033 287.3763492209547 348.2644662158947 65.24730155809056"
     viewBox="88.45 288.69 79.1 62.61">
    <g transform="matrix(1.8770805597305298, 0, 0, 1.8770805597305298, 87.65116882324219, 143.19009399414062)" fill="#000000" stroke="none"
       stroke-width="2" data-uid="o_enf4f14c7_6">
        <path d="M79.297,49.314L52.402,31.516c-0.348-0.233-0.778-0.314-1.19-0.228l-29.788,6.291c-0.602,0.126-1.074,0.595-1.207,1.196  l-0.179,0.806c-0.142,0.634,0.123,1.291,0.666,1.649l12.472,8.254l-0.721,3.258c-0.363,1.648,0.86,3.642,3.725,5.537  c5.44,3.6,14.722,5.484,20.748,4.211c2.849-0.601,4.456-1.802,4.784-3.28l0.621-2.813l8.047-1.699  c1.001,1.415,1.653,3.131,1.818,5.32c-0.817,0.423-1.383,1.265-1.383,2.25c0,0.825,0.399,1.551,1.011,2.016  c-0.692,3.527-1.614,10.01,0.226,12.883c0.542,0.846,1.309,1.386,2.219,1.559c0.072,0.014,0.144,0.021,0.215,0.021  c0.535,0,1.012-0.379,1.116-0.925c0.117-0.617-0.288-1.213-0.904-1.331c-0.2-0.037-0.462-0.134-0.729-0.55  c-0.649-1.014-0.801-3.015-0.681-5.273c0.561,1.752,1.424,3.328,2.753,4.203c0.528,0.349,1.232,0.2,1.576-0.325  c0.345-0.524,0.199-1.229-0.325-1.575c-1.788-1.178-2.543-5.216-2.704-8.49c0.779-0.435,1.312-1.257,1.312-2.211  c0-1.001-0.583-1.857-1.423-2.271c-0.15-2.332-0.756-4.231-1.692-5.808l5.792-1.224c0.602-0.126,1.074-0.595,1.207-1.196  l0.179-0.806C80.104,50.33,79.839,49.673,79.297,49.314z M48.465,43.157c0.024-0.206,0.233-0.374,0.622-0.456  c0.773-0.163,1.971,0.08,2.67,0.544c0.351,0.23,0.51,0.475,0.484,0.681l0,0l-0.114,0.563h-0.001  c-0.025,0.205-0.234,0.372-0.621,0.454c-0.775,0.164-1.97-0.079-2.67-0.542c-0.351-0.232-0.51-0.476-0.485-0.681L48.465,43.157z"
              transform="matrix(0.7023288011550903, 0, 0, 0.7023288011550903, -13.621110916137695, 55.56547164916992)" fill="#2F383D"
              stroke="none" stroke-width="2" data-uid="o_enf4f14c7_7" />
    </g>
</svg>
